<svg width="90" height="40" viewBox="0 0 90 40" fill="none" xmlns="http://www.w3.org/2000/svg">
<g clipPath="url(#clip0_1229_1790)">
<path d="M61.7734 19.0957L64.2569 30.2418L80.5093 22.0273L61.7734 19.0957Z" fill="#D12053"/>
<path d="M66.3924 2.43945L61.7734 19.0975L80.5112 22.0272L66.3924 2.43945Z" fill="#E2136E"/>
<path d="M46.5391 0L65.9211 2.31129L61.3385 18.8701L46.5391 0Z" fill="#D12053"/>
<path d="M46.3867 3.25586H48.5452L54.5999 10.9856L46.3867 3.25586Z" fill="#9E1638"/>
<path d="M81.0229 21.92L75.3906 14.1388L84.5024 12.5107L81.0229 21.92Z" fill="#D12053"/>
<path d="M80.0823 24.2008L80.6635 22.4697L66.4414 29.6727L80.0823 24.2008Z" fill="#E2136E"/>
<path d="M61.3739 19.5342L64.341 32.8503L55.5352 39.9999L61.3739 19.5342Z" fill="#9E1638"/>
<path d="M83.6172 16.465L88.7887 16.3772L85.0511 12.5811L83.6172 16.465Z" fill="#E2136E"/>
<path d="M47.8424 15.9328V17.37C47.3147 16.5397 45.8312 15.992 45.0129 16.1065C44.1946 16.221 42.9099 16.8966 42.2121 18.3968C41.4474 16.8184 39.9791 15.8984 38.8836 15.8984H35.4844V17.5856H37.6983C38.6771 17.5856 39.698 17.4864 40.6119 18.3166C40.967 18.6588 41.1995 19.1082 41.2734 19.5954C41.5544 20.9046 40.979 22.4754 39.4552 22.5136C38.9722 22.5319 38.4892 22.4759 38.0233 22.3475L37.9067 22.4678C38.2565 22.9644 38.5702 23.4856 38.8454 24.0271C39.7548 23.8335 40.5887 23.3815 41.2466 22.7254C41.6486 22.3349 41.9758 21.8744 42.2121 21.3665C42.4167 21.866 42.7072 22.3259 43.0705 22.7254C43.644 23.3671 44.3984 23.8208 45.2347 24.0271C45.4814 23.4892 45.7637 22.9682 46.0797 22.4678L45.9765 22.3475C45.5595 22.4756 45.1237 22.5318 44.6879 22.5136C43.1106 22.4697 42.822 20.855 43.0667 19.5954C43.2789 18.5227 44.2348 17.4673 45.1697 17.389C46.2193 17.3032 47.5002 18.1868 47.7602 19.269C47.8926 19.8622 47.9567 20.4686 47.9514 21.0764V30.9037C48.2009 30.8653 48.4524 30.8411 48.7046 30.8312C48.9608 30.8401 49.2161 30.8644 49.4694 30.9037V15.9328H47.8424Z" fill="#231F20"/>
<path d="M7.16053 10.2282C9.81988 9.96294 13.9035 13.3888 14.2343 14.137L14.4866 14.0969V12.1292C12.6188 11.1424 10.0111 9.11553 6.55257 9.36364C2.71554 9.63848 1.21476 11.8906 1.21094 15.8528V30.9134C1.449 30.8701 1.68987 30.844 1.9317 30.8352C2.20511 30.8452 2.4777 30.8714 2.74804 30.9134V17.5934H12.9495V18.6871C7.3498 18.7901 4.91988 21.9068 4.91988 24.5846C4.91988 27.8482 8.29616 30.9153 14.2266 30.9153H14.4886V15.8986H2.88952L2.8704 15.8643C2.79768 15.5732 2.75856 15.2748 2.75378 14.9749C2.73275 12.4384 4.41898 10.4954 7.16053 10.2282ZM6.92156 24.6781C6.92156 22.3229 9.53502 20.065 12.9495 19.5745V30.2798C9.19854 29.6404 6.92156 26.7012 6.92156 24.6781Z" fill="#E2136E"/>
<path d="M14.8867 15.8984V17.5875H25.3788V18.6811C19.7791 18.7842 17.3491 21.9009 17.3491 24.5787C17.3491 27.8423 20.7273 30.9094 26.654 30.9094H26.914V19.7786H27.0765C28.9597 19.727 30.0857 20.9237 30.145 22.4601C30.1685 22.9985 30.0204 23.5304 29.7218 23.9794C29.4233 24.4283 28.9897 24.7711 28.4836 24.9585L28.4951 25.1856L29.9251 25.1436C30.7243 24.134 31.2424 23.0079 31.1908 21.7921C31.1028 19.6717 29.6842 18.6621 26.914 18.7002V17.6028H33.5576V30.9228C33.8059 30.8791 34.057 30.853 34.3089 30.8445C34.5715 30.855 34.8333 30.8812 35.0928 30.9228V15.8984H14.8867ZM19.3508 24.6779C19.3508 22.3227 21.9662 20.0649 25.3788 19.5744V30.2815C21.6259 29.6402 19.3508 26.701 19.3508 24.6779Z" fill="#231F20"/>
</g>
<defs>
<clipPath id="clip0_1229_1790">
<rect width="90" height="40" fill="white"/>
</clipPath>
</defs>
</svg>
