<svg width="30" height="30" viewBox="0 0 30 30" fill="none" xmlns="http://www.w3.org/2000/svg">
<path d="M25.2623 9.77481L15.6373 15.3498C15.2498 15.5748 14.7623 15.5748 14.3623 15.3498L4.73728 9.77481C4.04978 9.3748 3.87478 8.4373 4.39978 7.8498C4.76228 7.4373 5.17478 7.0998 5.61228 6.8623L12.3873 3.1123C13.8373 2.2998 16.1873 2.2998 17.6373 3.1123L24.4123 6.8623C24.8498 7.0998 25.2623 7.4498 25.6248 7.8498C26.1248 8.4373 25.9498 9.3748 25.2623 9.77481Z" fill="white"/>
<path d="M14.2891 17.6746V26.1996C14.2891 27.1496 13.3266 27.7746 12.4766 27.3621C9.90156 26.0996 5.56406 23.7371 5.56406 23.7371C4.03906 22.8746 2.78906 20.6996 2.78906 18.9121V12.4621C2.78906 11.4746 3.82656 10.8496 4.67656 11.3371L13.6641 16.5496C14.0391 16.7871 14.2891 17.2121 14.2891 17.6746Z" fill="white"/>
<path d="M15.7109 17.6746V26.1996C15.7109 27.1496 16.6734 27.7746 17.5234 27.3621C20.0984 26.0996 24.4359 23.7371 24.4359 23.7371C25.9609 22.8746 27.2109 20.6996 27.2109 18.9121V12.4621C27.2109 11.4746 26.1734 10.8496 25.3234 11.3371L16.3359 16.5496C15.9609 16.7871 15.7109 17.2121 15.7109 17.6746Z" fill="white"/>
</svg>
