<svg width="86" height="28" viewBox="0 0 86 28" fill="none" xmlns="http://www.w3.org/2000/svg">
<g clipPath="url(#clip0_1229_1725)">
<path d="M56.0149 0.0341797C49.9086 0.0341797 44.4517 3.20683 44.4517 9.06856C44.4517 15.7908 54.1297 16.2551 54.1297 19.6321C54.1297 21.0541 52.5041 22.327 49.7275 22.327C45.7871 22.327 42.842 20.5484 42.842 20.5484L41.5819 26.4635C41.5819 26.4635 44.9746 27.9659 49.4789 27.9659C56.1551 27.9659 61.4084 24.6374 61.4084 18.6756C61.4084 11.5723 51.6901 11.1217 51.6901 7.9873C51.6901 6.87326 53.0246 5.65281 55.7932 5.65281C58.9169 5.65281 61.4655 6.94635 61.4655 6.94635L62.6988 1.2334C62.6988 1.2334 59.9257 0.0341797 56.0149 0.0341797ZM0.147896 0.465387L0 1.32771C0 1.32771 2.56898 1.79896 4.88272 2.73913C7.86181 3.8171 8.0741 4.44471 8.57581 6.3939L14.0431 27.5212H21.3723L32.6634 0.465387H25.3511L18.0959 18.8608L15.1354 3.26793C14.8639 1.48339 13.4886 0.465387 11.8052 0.465387H0.147896ZM35.6037 0.465387L29.8675 27.5211H36.8404L42.5565 0.4653H35.6037V0.465387ZM74.4939 0.465387C72.8125 0.465387 71.9217 1.36775 71.2679 2.94459L61.0522 27.5211H68.3645L69.7792 23.425H78.6877L79.548 27.5211H86L80.3713 0.465387H74.4939ZM75.4449 7.77502L77.6124 17.9277H71.8055L75.4449 7.77502Z" fill="#162984"/>
</g>
<defs>
<clipPath id="clip0_1229_1725">
<rect width="86" height="28" fill="white"/>
</clipPath>
</defs>
</svg>
